<?xml version="1.0" encoding="UTF-8"?>
<svg id="Livello_1" xmlns="http://www.w3.org/2000/svg" version="1.1" width="2048" height="2048" viewBox="0 0 1080 1080">
  <!-- Generator: Adobe Illustrator 29.8.1, SVG Export Plug-In . SVG Version: 2.1.1 Build 2)  -->
  <defs>
    <style>
      .st0 {
        fill: none;
        stroke: #131211;
        stroke-linecap: round;
        stroke-linejoin: round;
        stroke-width: 1.2px;
      }

      .st1, .st2 {
        fill: #131211;
      }

      .st2 {
        opacity: .1;
      }
    </style>
  </defs>
  <path class="st1" d="M626.5,64.2"/>
  <path class="st0" d="M533.8,363.4c.6-1.8,5.1-13.7,23.4-33.8,33.5-56,61.3-103.9,61.3-115.7"/>
  <path class="st0" d="M557.2,329.7s9.6-13.1,30.1-25c20.5-11.9,63.2-39.5,80.2-52.2,17-12.7,22.3-20.7,22.3-29.7"/>
  <path class="st0" d="M574.8,331.1c-8.7,5.6-18.9,21.1-18.9,32.1"/>
  <path class="st0" d="M466.9,213.9c0,11.8,27.9,59.8,61.3,115.7,6.4,7,11,13,14.5,17.9"/>
  <path class="st0" d="M540.1,351.5c-7.7-6.2-18.2-13.3-29.4-20.4,0,0,0,0,0,0-13.6-8.6-28.1-17.2-39.8-23.9-15-8.7-34.5-21.9-51.1-33.8-15-10.8-27.5-20.5-31.9-25-9.2-9.4-6.3-16.6,0-39.9,6.3-23.3,15.8-41.3,29.5-64.4s38.1-45.6,59.5-58.3c21.3-12.7,55.4-21.7,65.7-21.7h0,0c10.4,0,44.4,9,65.7,21.7,21.3,12.7,45.8,35.2,59.5,58.3,13.7,23.1,23.3,41.1,29.5,64.4,6.3,23.3,9.2,30.5,0,39.9-9.2,9.4-54.4,42.1-83,58.7-28.4,16.5-74.5,43.9-80.7,56.3l6.2-12Z"/>
  <path class="st0" d="M528.3,329.7s-9.6-13.1-30.1-25c-20.5-11.9-63.2-39.5-80.2-52.2-17-12.7-22.3-21.1-22.3-30.1"/>
  <path class="st0" d="M391.7,238.3c-8.6-24.4,26.3-26.7,151-26.7h0c124.7,0,159.7,2.4,151,26.7"/>
  <path class="st0" d="M387.8,209.2c13.7-13.1,58.8-15.7,154.9-15.7,96.1,0,141.3,2.5,154.9,15.7"/>
  <path class="st0" d="M505.9,291.8c16.9,1.4,19.5,1.4,36.9,1.4h0c17.4,0,20,0,36.9-1.4"/>
  <path class="st0" d="M510.7,300.1c12.8,1,16.4,1,32,1,15.6,0,19.3,0,32-1"/>
  <path class="st0" d="M510.7,331.1c8.7,5.6,18.9,21.1,18.9,32.1"/>
  <path class="st0" d="M419.9,273.4s-5.7,6.7-11.5,13c34.2,67,102.3,77.3,134.3,77.3,32.1,0,100.2-10.2,134.3-77.3-5.7-6.3-11.5-13-11.5-13"/>
  <path class="st2" d="M542.4,347.5h0s0,0,0,0c0,0,0,0,0,0Z"/>
  <path class="st2" d="M542.4,347.5h0s0,0,0,0c0,0,0,0,0,0Z"/>
  <path class="st1" d="M542.8,64.2"/>
  <line class="st0" x1="542.8" y1="293.3" x2="542.8" y2="64.2"/>
</svg>
