<?xml version="1.0" encoding="UTF-8"?>
<svg id="Livello_1" xmlns="http://www.w3.org/2000/svg" version="1.1" width="2048" height="2048" viewBox="0 0 1080 1080">
  <!-- Generator: Adobe Illustrator 29.8.1, SVG Export Plug-In . SVG Version: 2.1.1 Build 2)  -->
  <defs>
    <style>
      .st0 {
        fill: none;
        stroke: #131211;
        stroke-linecap: round;
        stroke-linejoin: round;
        stroke-width: 1.2px;
      }
    </style>
  </defs>
  <path class="st0" d="M243.5,893.8c-.4,16.2-2,34.8-3,43.7,15.4,6.1,17.3,8,38.5,8s27.8-6.5,27.8-6.5c0,0,0-30.8,2.3-44.4"/>
  <path class="st0" d="M234.1,861.9c-1.4-10,3.1-5.5,7.6,3.7,4.5,9.2,9.1,23.7,22.9,29.3"/>
  <path class="st0" d="M277.6,895.9c14.1-14.4,16.8-19.5,21.3-32,4.5-12.5,9.4-12.5,4.3,1.4"/>
  <path class="st0" d="M341.6,369.5c4.2-6.3,5.2-9.1,5.7,15.7.5,24.8-2.9,99.7-9.4,137.7-6.5,38.1-13,120.3-9.7,165.7,3.4,45.4-1,55.6,11.7,71.2s16.7,20.1,24.8,20.6c8.1.5,17.5-9.1,28.4-4.7,11,4.4,11.7,11.2,25.8,12.8,5.2.6,10-.6,14.6-2.3,7.9-2.9,15-7.4,21.9-7.1"/>
  <path class="st0" d="M433.7,786.1s15.3,6.3,75,5.3"/>
  <path class="st0" d="M291.3,399.3s30.8,18.3,53.5,56.6"/>
  <path class="st0" d="M720.6,820.5c4.5,21.9,28.8,56.6,35.3,62.8,6.8,6.5,22.5,14.7,37.8,13.7,15.3-1,16.8-1.6,48.1-3.1,42.8-13.6,40.7-77.2,32.4-144.5-8.3-67.3-40.7-234.8-72.5-328.7-2.6-7.6-5.1-14.7-7.6-21.3-28.7-75.4-54.5-90.7-87.3-103.7-35.7-14.1-97.3-21.1-97.3-21.1,0,0-16.1,29.8-66.7,29.8-50.6,0-66.7-29.9-66.7-29.9,0,0-61.6,7-97.3,21.1-32.9,13-58.7,28.3-87.3,103.7-2.5,6.6-5.1,13.7-7.6,21.3-31.8,93.9-64.2,261.4-72.5,328.7-8.4,67.3-10.4,131,32.3,144.5,31.3,1.6,32.9,2.2,48.1,3.1,15.3,1,30.9-7.2,37.8-13.7,6.5-6.2,30.8-40.9,35.3-62.8"/>
  <path class="st0" d="M841.8,893.8c.4,16.2,2,34.8,3,43.7-15.4,6.1-17.3,8-38.5,8-21.1,0-27.8-6.5-27.8-6.5,0,0,0-30.8-2.3-44.4"/>
  <path class="st0" d="M851.2,861.9c1.4-10-3.1-5.5-7.6,3.7-4.5,9.2-9.1,23.7-22.9,29.3"/>
  <path class="st0" d="M807.7,895.9c-14.1-14.4-16.8-19.5-21.3-32s-9.4-12.5-4.3,1.4"/>
  <path class="st0" d="M743.7,369.5c-4.2-6.3-5.2-9.1-5.7,15.7-.5,24.8,2.9,99.7,9.4,137.7,6.5,38.1,13,120.3,9.7,165.7-3.4,45.4,1,55.6-11.7,71.2-12.8,15.7-16.7,20.1-24.8,20.6s-17.5-9.1-28.4-4.7c-11,4.4-11.7,11.2-25.8,12.8-5.2.6-10-.6-14.6-2.3-7.9-2.9-15-7.4-21.9-7.1"/>
  <path class="st0" d="M651.6,786.1s-15.3,6.3-75,5.3"/>
  <path class="st0" d="M585.3,784.8c-9.4,8.6-16.8,12-36.8,12h-11.8c-20.1,0-27.4-3.4-36.8-12"/>
  <path class="st0" d="M722.3,780.1v39.1s-24.6,23.5-173.8,23.5h-11.8c-149.2,0-173.8-23.5-173.8-23.5v-39.1"/>
  <path class="st0" d="M794,399.3s-30.8,18.3-53.5,56.6"/>
</svg>
